<svg id="Layer_5" enable-background="new 0 0 64 64" height="512" viewBox="0 0 64 64" width="512" xmlns="http://www.w3.org/2000/svg"><g><g><g><path d="m18 9.06v-.01c0-.01 0-.03 0-.05 0-1.94.78-3.68 2.05-4.95s3.01-2.05 4.95-2.05h14c3.87 0 7 3.13 7 7v.05.01c2.08.23 3.96 1.17 5.36 2.58 1.63 1.62 2.64 3.88 2.64 6.36 0 1.54-.39 3.04-1.14 4.37.73 1.38 1.14 2.96 1.14 4.63 0 4.64-3.16 8.55-7.45 9.67h-.01c.94-2.03 1.46-4.29 1.46-6.67v-6.08c0-1.08-.44-2.06-1.15-2.77s-1.69-1.15-2.77-1.15c-3.98 0-7.94-.42-11.81-1.26s-7.65-2.09-11.27-3.74c-3.1 1.86-5 5.21-5 8.83v6.17.17.01c-.31-.12-.65-.18-1-.18-1.66 0-3 1.34-3 3-1.26-1.67-2-3.75-2-6 0-1.67.41-3.25 1.14-4.63-.75-1.33-1.14-2.83-1.14-4.37 0-2.48 1.01-4.74 2.64-6.36 1.4-1.41 3.28-2.35 5.36-2.58z" fill="#b4dd7f"/></g><g><path d="m15 62h-8c0-5.75 4.21-10.63 9.89-11.48l5.55-.83 10.56 12.31z" fill="#fcd770"/></g><g><path d="m49 62h-11l-3.48-4.11 7.04-8.2 5.55.83c2.84.42 5.31 1.86 7.07 3.9 1.77 2.05 2.82 4.7 2.82 7.58z" fill="#fcd770"/></g><g><path d="m37 49 4.56.69-7.04 8.2-2.52-2.98z" fill="#ffeaa7"/></g><g><path d="m32 54.91 2.52 2.98 3.48 4.11h-5l-10.56-12.31 4.56-.69z" fill="#ffeaa7"/></g><g><path d="m36.3 45.51.7 3.49-5 5.91-5-5.91.7-3.49.02-.09c1.36.38 2.8.58 4.28.58s2.91-.2 4.27-.58z" fill="#f0d0b4"/></g><g><path d="m15.99 40.23c.62-.53 1.01-1.34 1.01-2.23 0-1.66-1.34-3-3-3-.36 0-.71.07-1.03.19-.59-.54-.97-1.32-.97-2.19 0-1.66 1.34-3 3-3 .35 0 .69.06 1 .18.64.22 1.17.66 1.53 1.22.44-.25.93-.4 1.47-.4 1.66 0 3 1.34 3 3 0 1.07-.56 2-1.4 2.53.25.44.4.93.4 1.47 0 .97-.46 1.84-1.18 2.38-.5.39-1.13.62-1.82.62-.77 0-1.47-.29-2-.76z" fill="#e6e9ed"/></g><g><path d="m48 23.92v6.08c0 2.38-.52 4.64-1.46 6.67-1.94 4.25-5.69 7.49-10.27 8.75-1.36.38-2.79.58-4.27.58s-2.92-.2-4.28-.58c-.88-.24-1.73-.56-2.54-.94-2.06-.98-3.89-2.38-5.36-4.1.72-.54 1.18-1.41 1.18-2.38 0-.54-.15-1.03-.4-1.47.84-.53 1.4-1.46 1.4-2.53 0-1.66-1.34-3-3-3-.54 0-1.03.15-1.47.4-.36-.56-.89-1-1.53-1.22v-.01c0-.05 0-.11 0-.17v-6.17c0-3.62 1.9-6.97 5-8.83 3.62 1.65 7.4 2.9 11.27 3.74s7.83 1.26 11.81 1.26c1.08 0 2.06.44 2.77 1.15s1.15 1.69 1.15 2.77z" fill="#f0d0b4"/></g><g><circle cx="4" cy="28" fill="#ff826e" r="2"/></g><g><circle cx="5" cy="39" fill="#ff826e" r="2"/></g><g><path d="m14 35c1.66 0 3 1.34 3 3 0 .89-.39 1.7-1.01 2.23-.53.48-1.22.77-1.99.77-1.66 0-3-1.34-3-3 0-1.3.82-2.4 1.97-2.81.32-.12.67-.19 1.03-.19z" fill="#ff826e"/></g><g><circle cx="60" cy="23" fill="#ff826e" r="2"/></g><g><circle cx="58" cy="37" fill="#ff826e" r="5"/></g><g><circle cx="52" cy="45" fill="#ff826e" r="2"/></g></g><g><path d="m47.259 49.527-9.416-1.412-.405-2.023c4.289-1.454 7.805-4.571 9.791-8.584 4.595-1.409 7.771-5.662 7.771-10.508 0-1.63-.362-3.198-1.029-4.631.662-1.361 1.029-2.85 1.029-4.369 0-4.843-3.462-8.891-8.041-9.805-.405-4.034-3.819-7.195-7.959-7.195h-14c-4.14 0-7.554 3.161-7.959 7.195-4.579.914-8.041 4.962-8.041 9.805 0 1.519.367 3.008 1.029 4.369-.667 1.433-1.029 3.001-1.029 4.631 0 2.307.708 4.5 2.039 6.368.051.538.211 1.054.47 1.528-.913.733-1.509 1.845-1.509 3.104 0 2.206 1.794 4 4 4 .727 0 1.4-.209 1.988-.55.607.355 1.298.55 2.012.55.587 0 1.14-.134 1.642-.362 1.931 2.049 4.299 3.585 6.917 4.469l-.402 2.008-9.416 1.412c-6.223.934-10.741 6.179-10.741 12.473v1h52v-1c0-6.294-4.518-11.539-10.741-12.473zm-7.636.878-5.095 5.944-1.218-1.44 4.093-4.837zm-28.623-32.405c0-4.411 3.589-8 8-8h5.95v-2h-5.86c.478-2.833 2.942-5 5.91-5h14c2.954 0 5.409 2.147 5.904 5h-5.854v2h5.95c4.411 0 8 3.589 8 8 0 .764-.117 1.519-.33 2.246-.3-.383-.616-.755-.97-1.101l-1.4 1.428c1.741 1.706 2.7 3.99 2.7 6.427 0 3.365-1.87 6.382-4.733 7.924.473-1.56.733-3.212.733-4.924v-6.083c0-2.711-2.206-4.917-4.917-4.917-7.874 0-15.501-1.652-22.669-4.91l-.479-.218-.45.271c-3.383 2.03-5.485 5.743-5.485 9.688l.001 5.169h-.001c-1.327 0-2.496.656-3.224 1.654-.508-1.14-.776-2.375-.776-3.654 0-2.438.959-4.721 2.7-6.427l-1.4-1.428c-.353.346-.67.718-.97 1.101-.213-.727-.33-1.482-.33-2.246zm1 20c0-1.103.897-2 2-2s2 .897 2 2-.897 2-2 2-2-.897-2-2zm5.485 1.924c.318-.573.515-1.223.515-1.924 0-2.206-1.794-4-4-4-.231 0-.455.03-.676.068-.207-.318-.324-.682-.324-1.068 0-1.103.897-2 2-2 .685 0 1.313.35 1.685.935l.51.807.829-.472c.315-.179.643-.27.976-.27 1.103 0 2 .897 2 2 0 .685-.35 1.313-.935 1.685l-.807.51.472.829c.179.315.27.643.27.976 0 1.103-.897 2-2 2-.176 0-.348-.031-.515-.076zm3.714.453c.497-.667.801-1.484.801-2.377 0-.398-.061-.79-.182-1.169.751-.742 1.182-1.752 1.182-2.831 0-2.206-1.794-4-4-4-.398 0-.79.061-1.169.182-.247-.25-.531-.449-.83-.624l-.001-5.727c0-3.076 1.552-5.979 4.083-7.698 7.285 3.23 15.021 4.867 23 4.867 1.608 0 2.917 1.309 2.917 2.917v6.083c0 8.271-6.729 15-15 15-4.099 0-7.977-1.685-10.801-4.623zm10.801 6.623c1.202 0 2.374-.129 3.506-.368l.418 2.091-3.924 4.638-3.925-4.638.419-2.095c1.143.24 2.316.372 3.506.372zm-5.403 3.072 9.247 10.928h-2.385l-9.082-10.595zm-9.559 1.434 5.006-.751 8.783 10.245h-14.827v-6h-2v6h-5.954c.444-4.843 4.089-8.759 8.992-9.494zm32.962 9.494v-6h-2v6h-9.536l-2.628-3.106 6.12-7.139 5.006.751c4.903.735 8.548 4.651 8.992 9.494z"/><path d="m40 28c2.757 0 5-1.794 5-4h-2c0 1.084-1.374 2-3 2s-3-.916-3-2h-2c0 2.206 2.243 4 5 4z"/><path d="m24 26c-1.626 0-3-.916-3-2h-2c0 2.206 2.243 4 5 4s5-1.794 5-4h-2c0 1.084-1.374 2-3 2z"/><path d="m7 28c0-1.654-1.346-3-3-3s-3 1.346-3 3 1.346 3 3 3 3-1.346 3-3zm-4 0c0-.552.448-1 1-1s1 .448 1 1-.448 1-1 1-1-.448-1-1z"/><path d="m8 39c0-1.654-1.346-3-3-3s-3 1.346-3 3 1.346 3 3 3 3-1.346 3-3zm-3 1c-.552 0-1-.448-1-1s.448-1 1-1 1 .448 1 1-.448 1-1 1z"/><path d="m49 45c0 1.654 1.346 3 3 3s3-1.346 3-3-1.346-3-3-3-3 1.346-3 3zm3-1c.552 0 1 .448 1 1s-.448 1-1 1-1-.448-1-1 .448-1 1-1z"/><path d="m60 26c1.654 0 3-1.346 3-3s-1.346-3-3-3-3 1.346-3 3 1.346 3 3 3zm0-4c.552 0 1 .448 1 1s-.448 1-1 1-1-.448-1-1 .448-1 1-1z"/><path d="m59 32h-2c0 2.206-1.794 4-4 4v2c2.206 0 4 1.794 4 4h2c0-2.206 1.794-4 4-4v-2c-2.206 0-4-1.794-4-4zm-1 6.69c-.445-.67-1.02-1.245-1.69-1.69.67-.445 1.245-1.02 1.69-1.69.445.67 1.02 1.245 1.69 1.69-.67.445-1.245 1.02-1.69 1.69z"/></g></g></svg>