<?xml version="1.0" encoding="iso-8859-1"?>
<!-- Generator: Adobe Illustrator 19.0.0, SVG Export Plug-In . SVG Version: 6.00 Build 0)  -->
<svg version="1.1" id="Capa_1" xmlns="http://www.w3.org/2000/svg" xmlns:xlink="http://www.w3.org/1999/xlink" x="0px" y="0px"
	 viewBox="0 0 511.971 511.971" style="enable-background:new 0 0 511.971 511.971;" xml:space="preserve">
<g>
	<path style="fill:#35495E;" d="M0,296.277c29.17-138.176,185.423-183.725,307.999-152.354
		c40.441,10.351,85.365,40.505,122.828,5.525c15.221-14.478,22.485-35.433,19.489-56.225c29.884,19.128,58.921,50.154,61.468,87.395
		c3.457,50.534-41.558,89.882-79.232,115.659H0z"/>
	<g>
		<path style="fill:#CB9080;" d="M229.517,206.304c-4.875,0.004-8.83-3.946-8.834-8.821c-0.004-4.875,3.946-8.83,8.821-8.834
			c0.427,0,42.948-0.384,58.302-23.69c7.961-12.082,7.349-29.103-1.815-50.599c-1.891-4.48,0.198-9.646,4.672-11.553
			c4.474-1.907,9.647,0.164,11.57,4.631c11.642,27.31,11.737,49.953,0.28,67.293C281.888,205.946,231.647,206.304,229.517,206.304z"
			/>
		<path style="fill:#CB9080;" d="M318.729,226.907c-5.766,0.028-11.522-0.492-17.19-1.552c-4.773-0.992-7.838-5.665-6.847-10.437
			c0.992-4.773,5.665-7.838,10.438-6.847c0.565,0.112,31.647,6.155,45.866-10.112c10.297-11.78,10.082-34.228-0.625-64.918
			c-1.604-4.604,0.827-9.637,5.431-11.241c4.604-1.604,9.637,0.827,11.241,5.431c13.121,37.612,12.172,65.341-2.815,82.414
			C352.211,221.613,335.661,227.892,318.729,226.907z"/>
		<path style="fill:#CB9080;" d="M386.379,273.64c-4.48-0.006-8.245-3.365-8.759-7.816c-0.514-4.45,2.386-8.58,6.747-9.607
			c14.929-4.286,27.348-14.685,34.189-28.629c10.716-22.582,6.526-54.082-12.444-93.634c-2.101-4.395-0.245-9.662,4.148-11.769
			c4.393-2.107,9.662-0.258,11.775,4.131c21.47,44.767,25.616,81.491,12.323,109.151c-9.235,18.609-25.955,32.407-45.978,37.944
			C387.723,273.564,387.052,273.64,386.379,273.64z"/>
	</g>
	<path style="fill:#E6E7E8;" d="M423.216,283.487c5.945,5.388,9.335,13.037,9.335,21.059c0,8.023-3.391,15.672-9.335,21.059
		c-36.429,32.993-115.395,93.141-206.94,93.141S45.765,358.598,9.335,325.605C3.391,320.218,0,312.569,0,304.546
		c0-8.023,3.391-15.672,9.335-21.059c36.429-32.993,115.395-93.141,206.941-93.141S386.787,250.494,423.216,283.487z"/>
	<circle style="fill:#4482C3;" cx="216.276" cy="304.545" r="114.202"/>
	<circle style="fill:#2C2F38;" cx="216.276" cy="304.545" r="38.065"/>
</g>
<g>
</g>
<g>
</g>
<g>
</g>
<g>
</g>
<g>
</g>
<g>
</g>
<g>
</g>
<g>
</g>
<g>
</g>
<g>
</g>
<g>
</g>
<g>
</g>
<g>
</g>
<g>
</g>
<g>
</g>
</svg>
