<?xml version="1.0" encoding="iso-8859-1"?>
<!-- Generator: Adobe Illustrator 19.0.0, SVG Export Plug-In . SVG Version: 6.00 Build 0)  -->
<svg version="1.1" id="Capa_1" xmlns="http://www.w3.org/2000/svg" xmlns:xlink="http://www.w3.org/1999/xlink" x="0px" y="0px"
	 viewBox="0 0 511.978 511.978" style="enable-background:new 0 0 511.978 511.978;" xml:space="preserve">
<g>
	<g transform="translate(1 1)">
		<path style="fill:#1566C0;" d="M425.667,293.901h-25.6c36.437-24.917,79.957-62.891,76.629-111.787
			c-2.932-25.101-15.136-48.2-34.219-64.768c1.223-6.505,1.338-13.169,0.341-19.712c28.928,18.517,57.003,48.469,59.477,84.48
			C505.624,231.011,462.104,268.984,425.667,293.901z"/>
		<path style="fill:#2296F3;" d="M400.067,293.901H7.533c21.589-102.315,115.2-152.149,211.2-156.075
			c29.121-1.273,58.272,1.716,86.528,8.875c21.163,5.376,43.605,16.384,65.451,19.968c19.087,4.326,39.073-1.183,53.248-14.677
			c9.78-9.224,16.281-21.389,18.517-34.645c19.083,16.568,31.287,39.667,34.219,64.768
			C480.024,231.011,436.504,268.984,400.067,293.901z"/>
		<path style="fill:#E6E7E8;" d="M416.643,281.575c5.746,5.208,9.024,12.602,9.024,20.357s-3.278,15.149-9.024,20.357
			c-35.215,31.893-111.549,90.036-200.043,90.036S51.773,354.183,16.558,322.289c-5.746-5.208-9.024-12.602-9.024-20.357
			c0-7.755,3.278-15.149,9.024-20.357c35.215-31.893,111.549-90.036,200.042-90.036S381.427,249.682,416.643,281.575z"/>
		<circle style="fill:#4E342E;" cx="212.845" cy="297.118" r="110.396"/>
		<ellipse style="fill:#795548;" cx="199.533" cy="297.118" rx="98.133" ry="110.396"/>
		<circle style="fill:#607D8B;" cx="216.6" cy="301.931" r="36.796"/>
	</g>
	<g>
		<path d="M217.6,348.264c18.335,0.001,34.865-11.043,41.882-27.982c7.017-16.939,3.14-36.437-9.824-49.402
			c-12.964-12.965-32.462-16.845-49.401-9.829s-27.985,23.545-27.986,41.879C172.298,327.955,192.576,348.235,217.6,348.264z
			 M217.6,274.669c11.432-0.001,21.74,6.885,26.115,17.447c4.375,10.562,1.957,22.72-6.127,30.804
			c-8.084,8.084-20.242,10.502-30.804,6.127c-10.562-4.375-17.448-14.682-17.447-26.115
			C189.356,287.33,201.999,274.687,217.6,274.669L217.6,274.669z"/>
		<path d="M11.829,329.614c38.038,34.45,115.354,92.246,205.771,92.246s167.733-57.796,205.771-92.246
			c7.527-6.829,11.822-16.516,11.829-26.679c0-1.13-0.247-2.221-0.352-3.337c54.479-38.118,79.703-76.434,76.923-117.046
			c-3.262-47.708-45.379-79.592-63.333-91.088c-2.824-1.808-6.445-1.795-9.255,0.034c-2.81,1.829-4.289,5.135-3.778,8.449
			c2.104,15.184-2.264,30.554-12.04,42.362c-1.853-4.355-3.861-8.78-6.131-13.32c-2.117-4.2-7.232-5.896-11.438-3.792
			c-4.206,2.103-5.919,7.213-3.829,11.426c3.003,6.006,5.455,11.721,7.652,17.299c-10.851,5.986-23.472,7.933-35.623,5.497
			c-1.468-10.084-4.007-19.983-7.574-29.529c-1.621-4.416-6.508-6.688-10.929-5.08s-6.707,6.488-5.113,10.913
			c2.338,6.329,4.225,12.815,5.647,19.41c-6.53-1.991-13.167-4.345-19.893-6.752c-7.155-2.557-14.484-5.046-21.764-7.196
			c-0.988-10.014-3.661-19.789-7.907-28.912c-1.236-2.789-3.867-4.706-6.901-5.028s-6.008,1.001-7.802,3.469
			s-2.132,5.706-0.889,8.492c2.552,5.595,4.465,11.46,5.704,17.483c-72.529-15.391-151.258-3.598-208.154,31.763
			C42.89,195.89,10.9,241.109,0.183,293.177c-0.273,1.475-0.141,2.997,0.382,4.403c-0.324,1.768-0.513,3.559-0.566,5.356
			C0.007,313.098,4.302,322.786,11.829,329.614z M23.287,316.964c-3.961-3.59-6.221-8.687-6.221-14.033s2.259-10.443,6.221-14.033
			c32.691-30.091,70.436-54.176,111.498-71.146c-23.079,22.329-36.11,53.067-36.111,85.179s13.029,62.851,36.108,85.18
			C93.722,371.138,55.978,347.053,23.287,316.964z M319.458,302.931c0,56.255-45.604,101.858-101.858,101.858
			s-101.858-45.604-101.858-101.858c0-56.255,45.604-101.858,101.858-101.858C273.828,201.137,319.394,246.703,319.458,302.931z
			 M411.913,316.964c-32.691,30.089-70.435,54.174-111.495,71.147c23.078-22.329,36.108-53.068,36.108-85.18
			c-0.001-32.113-13.031-62.85-36.111-85.179c41.062,16.971,78.807,41.055,111.498,71.146c3.961,3.59,6.221,8.687,6.221,14.033
			S415.874,313.374,411.913,316.964z M430.825,159.244c12.233-11.57,19.959-27.109,21.8-43.846
			c17.429,13.804,40.008,37.429,42.121,68.321c2.273,33.239-19.301,65.731-65.779,99.15c-1.59-2.426-3.469-4.65-5.596-6.621
			c-6.899-6.249-15.128-13.277-24.457-20.577c13.192-6.349,23.856-16.962,30.269-30.123c8.497-17.856,8.625-39.838,0.678-65.491
			C430.18,159.769,430.507,159.541,430.825,159.244z M415.14,170.343c5.241,15.539,4.79,32.435-1.273,47.672
			c-6.346,12.482-17.563,21.792-31,25.729c-13.686-9.787-27.997-18.669-42.842-26.587c9.439-2.031,17.998-6.983,24.464-14.154
			c6.09-7.451,9.632-16.659,10.104-26.271C388.443,178.85,402.611,176.618,415.14,170.343z M357.739,173.336
			c0.07,6.686-2.1,13.203-6.164,18.512c-12.779,14.942-42.075,9.517-42.708,9.388c-1.203-0.219-2.438-0.18-3.625,0.115
			c-8.183-3.156-16.573-6.01-25.21-8.42c11.028-4.079,20.55-11.423,27.297-21.053c2.635-4.079,4.586-8.56,5.778-13.267
			c5.616,1.77,11.317,3.711,17.281,5.842C339.24,167.615,348.422,170.864,357.739,173.336L357.739,173.336z M97.429,182.948
			c54.229-33.69,129.874-44.426,199.184-28.746c-0.72,2.961-1.928,5.782-3.575,8.346c-13.679,21.108-53.712,21.458-54.117,21.458
			c-1.198,0.011-2.379,0.276-3.467,0.779c-5.892-0.488-11.839-0.779-17.854-0.779c-79.236,0-148.398,44.375-189.894,78.536
			C42.179,229.453,66.533,201.65,97.429,182.948z"/>
	</g>
</g>
<g>
</g>
<g>
</g>
<g>
</g>
<g>
</g>
<g>
</g>
<g>
</g>
<g>
</g>
<g>
</g>
<g>
</g>
<g>
</g>
<g>
</g>
<g>
</g>
<g>
</g>
<g>
</g>
<g>
</g>
</svg>
