<?xml version="1.0" encoding="iso-8859-1"?>
<!-- Generator: Adobe Illustrator 19.0.0, SVG Export Plug-In . SVG Version: 6.00 Build 0)  -->
<svg version="1.1" id="Capa_1" xmlns="http://www.w3.org/2000/svg" xmlns:xlink="http://www.w3.org/1999/xlink" x="0px" y="0px"
	 viewBox="0 0 511.978 511.978" style="enable-background:new 0 0 511.978 511.978;" xml:space="preserve">
<g>
	<g>
		<g>
			<path d="M200.257,261.052c-16.94,7.016-27.985,23.545-27.986,41.879c0.027,25.024,20.305,45.304,45.329,45.333
				c18.335,0.001,34.865-11.043,41.882-27.982c7.017-16.939,3.14-36.437-9.824-49.402
				C236.694,257.915,217.196,254.036,200.257,261.052z M237.588,322.919c-8.084,8.084-20.242,10.502-30.804,6.127
				c-10.562-4.375-17.448-14.682-17.447-26.115c0.018-15.601,12.661-28.244,28.262-28.262v0c11.432-0.001,21.74,6.885,26.115,17.447
				C248.09,302.678,245.672,314.835,237.588,322.919z"/>
			<path d="M511.771,182.552c-3.262-47.708-45.379-79.592-63.333-91.088c-2.824-1.808-6.445-1.795-9.255,0.034
				c-2.81,1.829-4.288,5.135-3.778,8.449c2.104,15.184-2.265,30.554-12.04,42.362c-1.853-4.355-3.861-8.78-6.131-13.32
				c-2.116-4.2-7.232-5.896-11.438-3.792c-4.206,2.103-5.919,7.213-3.829,11.426c3.003,6.006,5.455,11.721,7.652,17.299
				c-10.851,5.986-23.472,7.933-35.623,5.497c-1.468-10.084-4.007-19.983-7.574-29.529c-1.621-4.416-6.508-6.688-10.929-5.08
				s-6.707,6.488-5.113,10.913c2.338,6.329,4.225,12.815,5.647,19.41c-6.53-1.991-13.167-4.345-19.893-6.752
				c-7.155-2.557-14.484-5.046-21.764-7.196c-0.988-10.014-3.661-19.789-7.907-28.912c-1.236-2.789-3.867-4.706-6.901-5.028
				c-3.034-0.322-6.008,1.001-7.802,3.469c-1.793,2.468-2.132,5.706-0.889,8.492c2.552,5.595,4.465,11.46,5.704,17.483
				c-72.529-15.391-151.258-3.598-208.154,31.763C42.89,195.89,10.9,241.109,0.183,293.177c-0.273,1.475-0.141,2.997,0.382,4.403
				c-0.324,1.768-0.513,3.559-0.566,5.356c0.007,10.163,4.302,19.851,11.829,26.679c38.038,34.45,115.354,92.246,205.771,92.246
				s167.733-57.796,205.771-92.246c7.527-6.828,11.822-16.516,11.829-26.679c0-1.13-0.247-2.221-0.352-3.337
				C489.327,261.481,514.551,223.164,511.771,182.552z M364.488,203.002c6.09-7.451,9.632-16.659,10.104-26.271
				c13.852,2.119,28.019-0.113,40.548-6.389c5.241,15.539,4.79,32.435-1.273,47.672c-6.346,12.482-17.563,21.792-31,25.729
				c-13.686-9.787-27.997-18.669-42.842-26.588C349.463,215.125,358.022,210.173,364.488,203.002z M307.329,171.877
				c2.635-4.079,4.586-8.56,5.778-13.267c5.616,1.77,11.317,3.712,17.281,5.842c8.852,3.163,18.034,6.412,27.352,8.884v0
				c0.07,6.686-2.1,13.203-6.164,18.512c-12.779,14.942-42.075,9.517-42.708,9.388c-1.203-0.219-2.438-0.18-3.625,0.115
				c-8.183-3.156-16.573-6.01-25.21-8.42C291.06,188.85,300.582,181.507,307.329,171.877z M97.429,182.948
				c54.229-33.69,129.874-44.426,199.184-28.746c-0.72,2.961-1.928,5.782-3.575,8.346c-13.679,21.108-53.712,21.458-54.117,21.458
				c-1.198,0.011-2.379,0.276-3.467,0.779c-5.892-0.487-11.839-0.779-17.854-0.779c-79.236,0-148.398,44.375-189.894,78.536
				C42.179,229.453,66.533,201.65,97.429,182.948z M23.287,316.964c-3.961-3.59-6.221-8.687-6.221-14.033s2.259-10.443,6.221-14.033
				c32.691-30.091,70.436-54.176,111.498-71.146c-23.079,22.329-36.11,53.067-36.111,85.179c0,32.113,13.029,62.851,36.108,85.18
				C93.722,371.138,55.978,347.054,23.287,316.964z M217.6,404.789c-56.255,0-101.858-45.604-101.858-101.858
				S161.345,201.073,217.6,201.073c56.228,0.064,101.794,45.63,101.858,101.859C319.458,359.186,273.855,404.789,217.6,404.789z
				 M411.913,316.964c-32.691,30.089-70.435,54.174-111.495,71.147c23.078-22.329,36.108-53.068,36.108-85.18
				c-0.001-32.113-13.031-62.851-36.111-85.179c41.063,16.971,78.807,41.055,111.498,71.146c3.961,3.59,6.221,8.687,6.221,14.033
				S415.874,313.374,411.913,316.964z M428.966,282.869c-1.59-2.426-3.469-4.65-5.596-6.621
				c-6.899-6.249-15.128-13.277-24.457-20.577c13.192-6.349,23.856-16.962,30.269-30.123c8.497-17.856,8.625-39.838,0.678-65.491
				c0.32-0.289,0.646-0.516,0.965-0.814c12.233-11.57,19.959-27.109,21.8-43.846c17.429,13.804,40.008,37.429,42.121,68.321
				C497.019,216.957,475.445,249.45,428.966,282.869z"/>
		</g>
	</g>
</g>
<g>
</g>
<g>
</g>
<g>
</g>
<g>
</g>
<g>
</g>
<g>
</g>
<g>
</g>
<g>
</g>
<g>
</g>
<g>
</g>
<g>
</g>
<g>
</g>
<g>
</g>
<g>
</g>
<g>
</g>
</svg>
