<?xml version="1.0" encoding="iso-8859-1"?>
<!-- Generator: Adobe Illustrator 19.0.0, SVG Export Plug-In . SVG Version: 6.00 Build 0)  -->
<svg version="1.1" id="Capa_1" xmlns="http://www.w3.org/2000/svg" xmlns:xlink="http://www.w3.org/1999/xlink" x="0px" y="0px"
	 viewBox="0 0 512.148 512.148" style="enable-background:new 0 0 512.148 512.148;" xml:space="preserve">
<g transform="translate(0 -1)">
	<path style="fill:#CC66A1;" d="M370.833,37.695c-11.388-11.388-22.422-24.806-37.694-31.161
		c-27.681-12.584-60.403-3.101-77.065,22.334C239.412,3.432,206.69-6.051,179.009,6.533c-15.272,6.356-26.306,19.774-37.694,31.161
		C114.833,64.177,0.074,117.143,0.074,117.143c17.511,15.911,34.048,32.861,49.523,50.759l91.719,123.057
		c14.226,4.725,29.437,5.669,44.138,2.737c23.231-5.035,46.865-7.99,70.621-8.828c23.756,0.838,47.39,3.792,70.621,8.828
		c21.073,4.702,43.15,0.831,61.366-10.76c18.215-11.592,31.073-29.952,35.738-51.033c8.828-44.138,88.276-114.759,88.276-114.759
		S397.316,64.177,370.833,37.695z M309.04,170.108H203.109c-44.138,0-105.931-35.31-105.931-35.31l0.265-2.295
		c11.634,1.375,23.332,2.141,35.046,2.295c44.138,0,79.448-26.483,123.586-26.483s79.448,26.483,123.586,26.483
		c11.714-0.154,23.412-0.92,35.046-2.295l0.265,2.295C414.971,134.798,353.178,170.108,309.04,170.108z"/>
	<path style="fill:#804169;" d="M512.074,117.143c0,0-79.448,70.621-88.276,114.759c-4.665,21.081-17.522,39.441-35.738,51.033
		c-18.215,11.592-40.293,15.463-61.366,10.76c-23.231-5.035-46.865-7.99-70.621-8.828c-23.756,0.838-47.39,3.792-70.621,8.828
		c-14.701,2.932-29.912,1.989-44.138-2.737L49.597,167.902c-15.474-17.898-32.012-34.848-49.523-50.759
		c0,0,52.966,10.593,97.368,15.36l-0.265,2.295c0,0,61.793,35.31,105.931,35.31H309.04c44.138,0,105.931-35.31,105.931-35.31
		l-0.265-2.295C459.109,127.736,512.074,117.143,512.074,117.143z"/>
	<path style="fill:#E6E7E8;" d="M344.35,73.006c-3.799-0.002-7.171-2.434-8.371-6.039c-3.859-11.781-14.623-19.93-27.009-20.448
		c-4.875-0.019-8.812-3.987-8.793-8.862c0.019-4.875,3.987-8.812,8.862-8.793c19.963,0.536,37.441,13.547,43.681,32.517
		c0.896,2.692,0.445,5.651-1.213,7.953C349.85,71.637,347.187,73.003,344.35,73.006z"/>
	<path style="fill:#CC66A1;" d="M141.227,242.142v0.088h0.088v173.815H35.385V202.947c-1.159-15.351,6.153-30.11,19.068-38.488
		c22.422-12.712,55.879,2.825,74.505,34.692c7.146,11.808,11.354,25.158,12.27,38.93h-0.088c0.176,1.11,0.264,2.231,0.265,3.354
		v0.265L141.227,242.142z"/>
	<path style="fill:#35495E;" d="M150.143,513.148H26.557V398.39c0-4.875,3.952-8.828,8.828-8.828h105.931
		c4.875,0,8.828,3.952,8.828,8.828V513.148z"/>
	<path style="fill:#547580;" d="M61.867,487.291c-2.341,0.001-4.587-0.929-6.243-2.585c-1.656-1.656-2.585-3.901-2.585-6.243
		v-58.306c0-4.875,3.952-8.828,8.828-8.828s8.828,3.952,8.828,8.828v58.306c0.001,2.341-0.929,4.587-2.585,6.243
		C66.454,486.361,64.209,487.291,61.867,487.291z"/>
</g>
<g>
</g>
<g>
</g>
<g>
</g>
<g>
</g>
<g>
</g>
<g>
</g>
<g>
</g>
<g>
</g>
<g>
</g>
<g>
</g>
<g>
</g>
<g>
</g>
<g>
</g>
<g>
</g>
<g>
</g>
</svg>
