<?xml version="1.0" encoding="iso-8859-1"?>
<!-- Generator: Adobe Illustrator 19.0.0, SVG Export Plug-In . SVG Version: 6.00 Build 0)  -->
<svg version="1.1" id="Capa_1" xmlns="http://www.w3.org/2000/svg" xmlns:xlink="http://www.w3.org/1999/xlink" x="0px" y="0px"
	 viewBox="0 0 511.961 511.961" style="enable-background:new 0 0 511.961 511.961;" xml:space="preserve">
<g transform="translate(-1 -2)">
	<polygon style="fill:#CC4B4C;" points="398.768,33.323 398.706,33.385 398.644,33.323 396.298,35.669 277.624,154.343 
		351.716,228.435 497.742,82.409 	"/>
	
		<ellipse transform="matrix(-0.2588 -0.9659 0.9659 -0.2588 505.6968 506.1043)" style="fill:#D75E72;" cx="447.022" cy="59.035" rx="46.46" ry="67.108"/>
	<g>
		<path style="fill:#35495E;" d="M146.747,260.523l98.79,98.79L102.375,502.474c-3.447,3.447-9.037,3.447-12.484,0L3.586,416.169
			c-3.447-3.447-3.447-9.037,0-12.484L146.747,260.523z"/>
		<path style="fill:#35495E;" d="M293.78,138.358l73.957,73.957c3.447,3.447,3.447,9.037,0,12.484L249.018,343.518l-86.441-86.441
			l118.719-118.719C284.744,134.91,290.333,134.91,293.78,138.358z"/>
	</g>
	<g>
		<path style="fill:#547580;" d="M256.667,295.269c-3.57-0.001-6.788-2.152-8.154-5.45c-1.366-3.298-0.611-7.094,1.913-9.619
			l67.914-67.918c2.23-2.23,5.48-3.101,8.526-2.285c3.046,0.816,5.425,3.195,6.241,6.241c0.816,3.046-0.055,6.296-2.284,8.526
			l-67.914,67.918C261.255,294.341,259.009,295.272,256.667,295.269z"/>
		<path style="fill:#547580;" d="M133.196,261.742l111.14,111.14c6.819,6.819,6.819,17.875,0,24.694l-0.006,0.006
			c-6.819,6.819-17.875,6.819-24.694,0l-111.14-111.14c-6.819-6.819-6.819-17.875,0-24.694l0.006-0.006
			C115.322,254.923,126.378,254.923,133.196,261.742z"/>
	</g>
	<path style="fill:#84B5CB;" d="M170.291,249.467l86.306,86.306c3.447,3.447,3.447,9.037,0,12.484l-18.455,18.455l-98.79-98.79
		l18.455-18.455C161.254,246.019,166.843,246.019,170.291,249.467z"/>
</g>
<g>
</g>
<g>
</g>
<g>
</g>
<g>
</g>
<g>
</g>
<g>
</g>
<g>
</g>
<g>
</g>
<g>
</g>
<g>
</g>
<g>
</g>
<g>
</g>
<g>
</g>
<g>
</g>
<g>
</g>
</svg>
