<?xml version="1.0" encoding="iso-8859-1"?>
<!-- Generator: Adobe Illustrator 19.0.0, SVG Export Plug-In . SVG Version: 6.00 Build 0)  -->
<svg version="1.1" id="Capa_1" xmlns="http://www.w3.org/2000/svg" xmlns:xlink="http://www.w3.org/1999/xlink" x="0px" y="0px"
	 viewBox="0 0 503.672 503.672" style="enable-background:new 0 0 503.672 503.672;" xml:space="preserve">
<g>
	<g transform="translate(0 2)">
		<path style="fill:#3F51B5;" d="M285.375,48.358c0,0-25.18,20.144-25.18,40.289s8.393,26.859,8.393,26.859v67.132h33.574v-67.132
			c0,0,8.393-6.715,8.393-26.859S285.375,48.358,285.375,48.358z"/>
		<path style="fill:#FFEB3A;" d="M377.703,14.784c-32.449,0-58.754,7.516-58.754,16.787l33.574,58.754v92.313h50.361V90.325
			l33.574-58.754C436.457,22.3,410.152,14.784,377.703,14.784z"/>
		<path style="fill:#3F51B5;" d="M201.691,54.715l-8.644,44.003v83.934h33.574V98.718l-8.644-44.003
			c-0.934-3.737-4.291-6.358-8.143-6.358S202.625,50.979,201.691,54.715z"/>
		<path style="fill:#C52828;" d="M159.473,132.361v41.967H83.932v-41.967c0.014-4.63,3.764-8.38,8.393-8.393
			c4.63-0.014,8.38-3.764,8.393-8.393v-25.18c-4.63-0.014-8.38-3.764-8.393-8.393V14.852c0.014-4.63,3.764-8.38,8.393-8.393h41.967
			c4.63,0.014,8.38,3.764,8.393,8.393V82c-0.014,4.63-3.764,8.38-8.393,8.393v25.18c0.014,4.63,3.764,8.38,8.393,8.393
			S159.46,127.731,159.473,132.361z"/>
		<path style="fill:#F44335;" d="M134.293,132.361v41.967H83.932v-41.967c0.014-4.63,3.764-8.38,8.393-8.393
			c4.63-0.014,8.38-3.764,8.393-8.393v-25.18c-4.63-0.014-8.38-3.764-8.393-8.393V14.852c0.014-4.63,3.764-8.38,8.393-8.393h16.787
			c4.63,0.014,8.38,3.764,8.393,8.393V82c-0.014,4.63-3.764,8.38-8.393,8.393v25.18c0.014,4.63,3.764,8.38,8.393,8.393
			S134.279,127.731,134.293,132.361z"/>
		<rect x="352.523" y="123.883" style="fill:#CFD8DC;" width="50.361" height="58.754"/>
		<rect x="352.523" y="90.309" style="fill:#795548;" width="50.361" height="33.574"/>
		<g>
			<rect x="193.047" y="98.72" style="fill:#CFD8DC;" width="33.574" height="83.934"/>
			<rect x="268.588" y="149.064" style="fill:#CFD8DC;" width="33.574" height="33.574"/>
		</g>
		<rect x="268.588" y="115.49" style="fill:#795548;" width="33.574" height="33.574"/>
		<path style="fill:#CFD8DC;" d="M83.932,174.328v-41.967c0.014-4.63,3.763-8.38,8.393-8.393c4.63-0.014,8.38-3.763,8.393-8.393
			v-25.18h41.967v25.18c0.014,4.63,3.764,8.38,8.393,8.393s8.38,3.763,8.393,8.393v41.967"/>
		<path style="fill:#F5F5F5;" d="M134.293,132.361v41.967H83.932v-41.967c0.014-4.63,3.764-8.38,8.393-8.393
			c4.63-0.014,8.38-3.764,8.393-8.393v-25.18h16.787v25.18c0.014,4.63,3.764,8.38,8.393,8.393S134.279,127.731,134.293,132.361z"/>
		<path style="fill:#AD1457;" d="M411.208,174.259H92.394c-22.273,0-43.632,8.852-59.375,24.608S8.442,235.99,8.46,258.262
			l0.171,226.39c-0.063,2.266,0.793,4.46,2.373,6.085c1.58,1.625,3.75,2.541,6.017,2.541h469.56c2.266,0,4.437-0.917,6.017-2.541
			c1.58-1.625,2.436-3.82,2.373-6.085l0.171-226.39c0.018-22.273-8.817-43.639-24.56-59.395
			C454.84,183.112,433.481,174.259,411.208,174.259z"/>
		<path style="fill:#E91E63;" d="M390.415,174.259H88.007c-45.176,1.226-80.812,38.827-79.615,84.003l0.162,226.39
			c-0.116,2.206,0.664,4.366,2.162,5.99c1.498,1.624,3.588,2.574,5.797,2.637H461.91c2.208-0.062,4.298-1.013,5.797-2.637
			c1.498-1.624,2.278-3.784,2.162-5.99l0.162-226.39C471.228,213.086,435.591,175.485,390.415,174.259z"/>
		<path style="fill:#FDD834;" d="M347.654,323.815l-31.979,34.077l-63.874,68.239l-12.59-13.43l51.284-54.809l31.979-34.077
			c17.711-19.299,17.711-48.94,0-68.239c-5.256-5.68-11.914-9.877-19.305-12.17c15.935-4.864,33.246-0.128,44.485,12.17
			C365.365,274.875,365.365,304.516,347.654,323.815z"/>
		<path style="fill:#FFEB3A;" d="M322.474,323.815l-31.979,34.077l-51.284,54.809l-51.284-54.809l-31.979-34.077
			c-17.711-19.299-17.711-48.94,0-68.239c5.278-5.694,11.967-9.892,19.389-12.17c15.935-4.864,33.246-0.128,44.485,12.17
			l19.389,20.732l12.59,13.43l31.979-34.161c5.278-5.693,11.967-9.892,19.389-12.17c7.391,2.293,14.049,6.491,19.305,12.17
			C340.185,274.875,340.185,304.516,322.474,323.815z"/>
	</g>
	<g>
		<path d="M503.605,159.541c-0.075-13.907-11.343-25.155-25.25-25.205h-0.086c-6.656,0.009-13.031,2.687-17.697,7.434
			l-28.542,28.538c-6.804-1.59-13.766-2.407-20.753-2.437v-81.71l32.467-56.818c0.083-0.145,0.078-0.309,0.152-0.458
			c0.231-0.513,0.408-1.048,0.529-1.596c0.164-0.531,0.275-1.076,0.329-1.629c0.01-0.168,0.097-0.31,0.097-0.481
			c-0.051-0.538-0.135-1.072-0.252-1.599c-0.05-0.255-0.046-0.509-0.119-0.758C440.633,0.725,384.341,0,377.703,0
			s-62.93,0.725-66.777,22.823c-0.073,0.249-0.069,0.504-0.119,0.758c-0.117,0.527-0.201,1.061-0.252,1.599
			c0,0.171,0.087,0.312,0.097,0.481c0.054,0.553,0.164,1.099,0.329,1.629c0.121,0.549,0.298,1.084,0.529,1.596
			c0.074,0.149,0.069,0.312,0.152,0.458l32.468,56.818v81.707h-33.574v-55.64c6.056-8.779,9.01-19.327,8.393-29.975
			c0-23.5-25.43-44.525-28.332-46.844c-0.208-0.167-0.462-0.207-0.68-0.351c-0.916-0.581-1.925-0.998-2.984-1.233
			c-2.125-0.379-4.314,0.06-6.129,1.227c-0.222,0.145-0.48,0.187-0.692,0.356c-2.902,2.32-28.332,23.344-28.332,46.844
			c-0.616,10.647,2.338,21.195,8.393,29.974v55.641h-25.18V92.328c-0.039-0.267-0.093-0.532-0.159-0.793
			c0.016-0.274,0.017-0.548,0.004-0.822l-8.738-44.426c-1.884-7.553-8.715-12.82-16.499-12.72s-14.478,5.539-16.169,13.138
			l-8.644,44.008c-0.013,0.274-0.012,0.548,0.004,0.822c-0.067,0.261-0.12,0.526-0.159,0.793v75.541h-16.787v-33.574
			c-0.011-9.267-7.52-16.776-16.787-16.787V98.386c5.175-2.975,8.374-8.482,8.393-14.452V16.787
			C159.463,7.52,151.953,0.011,142.686,0h-41.967c-9.267,0.011-16.776,7.52-16.787,16.787v67.148
			c0.02,5.97,3.218,11.476,8.393,14.452v19.122c-9.267,0.011-16.776,7.52-16.787,16.787v35.156
			c-43.778,8.093-75.528,46.3-75.471,90.82L0.24,486.426c-0.125,4.531,1.588,8.919,4.749,12.167
			c3.161,3.248,7.501,5.08,12.034,5.079H486.58c4.491,0.001,8.795-1.797,11.95-4.994c3.155-3.196,4.897-7.524,4.837-12.015
			l0.168-226.393c0.068-24.003-9.281-47.076-26.038-64.261l18.706-18.706C500.94,172.606,503.605,166.212,503.605,159.541z
			 M394.49,109.115h-33.574V92.328h33.574V109.115z M426.721,25.302l-28.707,50.239h-40.621l-28.707-50.239
			c5.418-3.498,22.329-8.515,49.018-8.515S421.303,21.804,426.721,25.302L426.721,25.302z M360.916,125.902h33.574v41.967h-33.574
			V125.902z M293.768,134.295h-16.787v-16.787h16.787V134.295z M285.375,53.275c7.165,7.031,16.787,18.74,16.787,28.98
			c0.35,6.406-1.042,12.788-4.026,18.467h-25.523c-2.983-5.68-4.374-12.061-4.025-18.467
			C268.588,72.015,278.21,60.306,285.375,53.275z M276.982,151.082h16.787v16.787h-16.787V151.082z M216.418,83.934h-13.21l6.532-34
			L216.418,83.934z M201.441,100.721h16.787v67.148h-16.787V100.721z M100.719,16.787h41.967l0.008,67.148h-41.976V16.787z
			 M92.326,134.295c9.267-0.011,16.776-7.52,16.787-16.787v-16.787h25.18v16.787c0.011,9.267,7.52,16.776,16.787,16.787v33.574
			H92.396l-0.07,0.004V134.295z M486.58,486.885l-469.557-0.238l-0.168-226.394c-0.016-20.045,7.936-39.274,22.105-53.453
			c14.168-14.179,33.392-22.146,53.436-22.145h318.811c20.045,0,39.268,7.966,53.436,22.145
			c14.168,14.179,22.12,33.408,22.105,53.453L486.58,486.885z M484.326,165.443l-19.604,19.604
			c-4.711-3.368-9.731-6.28-14.993-8.698l22.754-22.75c1.537-1.576,3.643-2.468,5.844-2.475h0.025
			c3.412-0.042,6.508,1.993,7.822,5.142C487.487,159.415,486.756,163.047,484.326,165.443z"/>
		<path d="M315.784,235.082h-0.057c-14.483,0.031-28.296,6.107-38.106,16.762l-25.82,27.607l-25.84-27.631
			c-9.809-10.642-23.613-16.708-38.086-16.738h-0.057c-14.447,0.04-28.22,6.114-37.992,16.754
			c-20.63,22.567-20.628,57.148,0.004,79.713l95.844,102.32c1.587,1.694,3.805,2.656,6.127,2.656c2.322,0,4.54-0.961,6.127-2.656
			l95.844-102.32c20.631-22.566,20.631-57.147,0-79.713C344.003,241.195,330.23,235.121,315.784,235.082z M341.539,320.057
			l-0.012,0.017l-89.725,95.779l-89.738-95.795c-14.683-16.068-14.678-40.685,0.012-56.746c6.616-7.237,15.953-11.385,25.758-11.442
			h0.037c9.832,0.046,19.2,4.19,25.848,11.434l31.951,34.164c1.624,1.629,3.83,2.545,6.131,2.545c2.301,0,4.507-0.916,6.131-2.545
			l31.93-34.139c6.65-7.257,16.026-11.411,25.869-11.459h0.037c9.805,0.057,19.14,4.205,25.754,11.443
			C356.216,279.371,356.223,303.989,341.539,320.057L341.539,320.057z"/>
		<path d="M41.965,260.262c-2.226-0.001-4.361,0.884-5.936,2.458c-1.574,1.574-2.458,3.709-2.458,5.936V377.77
			c0,4.636,3.758,8.393,8.393,8.393s8.393-3.758,8.393-8.393V268.656c0.001-2.226-0.884-4.361-2.458-5.936
			C46.327,261.146,44.191,260.262,41.965,260.262z"/>
		<path d="M41.965,402.951c-2.226-0.001-4.361,0.884-5.936,2.458c-1.574,1.574-2.458,3.709-2.458,5.936v33.574
			c0,4.636,3.758,8.393,8.393,8.393s8.393-3.758,8.393-8.393v-33.574c0.001-2.226-0.884-4.361-2.458-5.936
			C46.327,403.834,44.191,402.95,41.965,402.951z"/>
	</g>
</g>
<g>
</g>
<g>
</g>
<g>
</g>
<g>
</g>
<g>
</g>
<g>
</g>
<g>
</g>
<g>
</g>
<g>
</g>
<g>
</g>
<g>
</g>
<g>
</g>
<g>
</g>
<g>
</g>
<g>
</g>
</svg>
