<?xml version="1.0" encoding="iso-8859-1"?>
<!-- Generator: Adobe Illustrator 19.0.0, SVG Export Plug-In . SVG Version: 6.00 Build 0)  -->
<svg version="1.1" id="Capa_1" xmlns="http://www.w3.org/2000/svg" xmlns:xlink="http://www.w3.org/1999/xlink" x="0px" y="0px"
	 viewBox="0 0 512.008 512.008" style="enable-background:new 0 0 512.008 512.008;" xml:space="preserve">
<g transform="translate(0 -1)">
	<g transform="translate(1 27)">
		<path style="fill:#CFD8DC;" d="M281.8,289.169L103.368,467.516c-13.314,13.312-34.899,13.312-48.212,0l-37.634-37.632
			c-3.664-3.643-6.438-8.081-8.107-12.971c-4.266-12.331-1.118-26.015,8.107-35.243L195.87,203.238
			c3.353-3.328,8.763-3.328,12.117,0l73.813,73.813C285.128,280.405,285.128,285.816,281.8,289.169z"/>
		<g>
			<path style="fill:#F5F5F5;" d="M267.122,262.374c-0.261,1.833-1.097,3.537-2.389,4.864L86.301,445.585
				c-13.314,13.312-34.898,13.312-48.212,0L9.416,416.913c-4.266-12.331-1.118-26.015,8.107-35.243L195.87,203.238
				c3.353-3.328,8.763-3.328,12.117,0L267.122,262.374z"/>
			<path style="fill:#F5F5F5;" d="M257.038,203.273l24.732,24.732c3.332,3.332,3.332,8.736,0,12.068l-32.63,32.63l-36.8-36.8
				l32.63-32.63C248.303,199.94,253.706,199.94,257.038,203.273z"/>
		</g>
		<path style="fill:#FDD834;" d="M281.714,289.169l-18.432,18.432l-85.846-85.845l0.598-0.597l17.835-17.835
			c3.353-3.328,8.763-3.328,12.117,0l55.125,55.125l18.603,18.603C285.043,280.405,285.043,285.816,281.714,289.169z"/>
		<path style="fill:#FFEB3A;" d="M261.064,267.153l-18.517,18.517l-64.512-64.512l17.835-17.835c3.353-3.328,8.763-3.328,12.117,0
			l55.125,55.125C264.171,261.502,263.374,264.893,261.064,267.153z"/>
	</g>
	<g>
		<path d="M50.097,500.533c16.675,16.633,43.667,16.633,60.342,0l159.865-159.862l0.002-0.001l0.001-0.002l24.532-24.532
			c1.601-1.6,2.5-3.77,2.5-6.033c0-2.263-0.899-4.433-2.5-6.033l-18.5-18.5l12.475-12.475c6.633-6.672,6.633-17.449,0-24.121
			l-0.009-0.009l-6.331-6.331l116.732-116.731l6.233,6.233c2.155,2.156,5.297,2.997,8.242,2.208
			c2.944-0.789,5.244-3.089,6.033-6.033c0.789-2.944-0.053-6.086-2.208-8.242l-6.233-6.233l6.333-6.333l18.5,18.5
			c3.337,3.303,8.716,3.29,12.036-0.03c3.32-3.32,3.334-8.699,0.03-12.036l-18.5-18.5l6.333-6.333l24.633,24.633
			c3.332,3.332,8.735,3.332,12.067,0c3.332-3.332,3.332-8.735,0-12.067l-24.633-24.633l6.333-6.333l24.633,24.633
			c3.332,3.332,8.735,3.332,12.067,0c3.332-3.332,3.332-8.735,0-12.067l-24.633-24.633l6.333-6.333l18.5,18.5
			c3.332,3.332,8.735,3.332,12.067,0c3.332-3.332,3.332-8.735,0-12.067l-18.5-18.5l6.333-6.333l6.233,6.233
			c3.336,3.308,8.719,3.296,12.041-0.026c3.322-3.322,3.333-8.705,0.026-12.041l-6.233-6.233l0.1-0.1
			c3.332-3.332,3.332-8.735,0-12.067c-3.332-3.332-8.735-3.332-12.067,0l-0.1,0.1l-6.234-6.233
			c-2.151-2.178-5.304-3.037-8.262-2.251s-5.269,3.097-6.055,6.055c-0.786,2.958,0.073,6.111,2.251,8.262l6.233,6.233l-6.333,6.333
			l-18.5-18.5c-3.332-3.332-8.735-3.332-12.067,0c-3.332,3.332-3.332,8.735,0,12.067l18.5,18.5l-6.334,6.333l-24.633-24.633
			c-3.332-3.332-8.735-3.332-12.067,0c-3.332,3.332-3.332,8.735,0,12.067l24.633,24.633l-6.333,6.333l-24.634-24.633
			c-3.341-3.281-8.701-3.256-12.012,0.054c-3.311,3.311-3.335,8.671-0.054,12.012l24.633,24.633l-6.333,6.333l-18.5-18.5
			c-3.332-3.332-8.735-3.332-12.067,0c-3.332,3.332-3.332,8.735,0,12.067l18.5,18.5l-6.333,6.333l-6.233-6.233
			c-3.332-3.332-8.735-3.332-12.067,0c-3.332,3.332-3.332,8.735,0,12.067l6.233,6.233L270.405,230.57l-6.333-6.333
			c-6.667-6.659-17.467-6.659-24.133,0l-12.467,12.467l-18.5-18.5c-1.6-1.601-3.77-2.5-6.033-2.5c-2.263,0-4.433,0.899-6.033,2.5
			L12.505,402.6c-16.633,16.673-16.633,43.664,0,60.337L50.097,500.533z M252.005,236.304l12.363,12.36l0.002,0.004l0.009,0.006
			l12.36,12.358l6.033-6.033l-18.5,18.504l-24.733-24.733L252.005,236.304z M202.938,236.304l18.5,18.5l36.8,36.8l18.5,18.5
			l-12.467,12.467l-73.8-73.8L202.938,236.304z M24.572,414.666l153.833-153.83l73.8,73.8L98.372,488.466
			c-10.008,9.975-26.2,9.975-36.208,0l-37.592-37.596C14.597,440.864,14.597,424.673,24.572,414.666z"/>
		<path d="M43.472,441.3c2.264,0.003,4.435-0.897,6.033-2.5l104.267-104.262c3.332-3.332,3.332-8.735,0-12.067
			c-3.332-3.332-8.735-3.332-12.067,0L37.438,426.733c-2.44,2.44-3.169,6.11-1.849,9.298S40.021,441.299,43.472,441.3L43.472,441.3z
			"/>
		<path d="M172.272,312.504c2.264,0.003,4.435-0.897,6.033-2.5l6.133-6.133c3.332-3.332,3.332-8.735,0-12.067
			c-3.332-3.332-8.735-3.332-12.067,0l-6.133,6.133c-2.44,2.44-3.169,6.11-1.849,9.298S168.82,312.503,172.272,312.504
			L172.272,312.504z"/>
	</g>
</g>
<g>
</g>
<g>
</g>
<g>
</g>
<g>
</g>
<g>
</g>
<g>
</g>
<g>
</g>
<g>
</g>
<g>
</g>
<g>
</g>
<g>
</g>
<g>
</g>
<g>
</g>
<g>
</g>
<g>
</g>
</svg>
