<?xml version="1.0" encoding="iso-8859-1"?>
<!-- Generator: Adobe Illustrator 19.0.0, SVG Export Plug-In . SVG Version: 6.00 Build 0)  -->
<svg version="1.1" id="Capa_1" xmlns="http://www.w3.org/2000/svg" xmlns:xlink="http://www.w3.org/1999/xlink" x="0px" y="0px"
	 viewBox="0 0 512.033 512.033" style="enable-background:new 0 0 512.033 512.033;" xml:space="preserve">
<g transform="translate(-2 -1)">
	<path style="fill:#35495E;" d="M499.223,40.801c3.395,3.352,8.859,3.335,12.232-0.039c3.373-3.374,3.391-8.838,0.038-12.232
		l-6.339-6.339l0.102-0.102c3.389-3.389,3.389-8.883,0-12.271c-3.389-3.389-8.883-3.389-12.271,0l-0.102,0.102l-6.339-6.339
		c-2.187-2.215-5.394-3.088-8.402-2.289s-5.358,3.149-6.158,6.158c-0.799,3.009,0.074,6.215,2.289,8.402l6.339,6.339l-6.441,6.441
		L455.358,9.817c-3.389-3.389-8.883-3.389-12.271,0c-3.389,3.389-3.389,8.883,0,12.271l18.814,18.814l-6.441,6.441l-25.051-25.051
		c-3.389-3.389-8.883-3.389-12.271,0c-3.389,3.389-3.389,8.883,0,12.271l25.051,25.051l-6.441,6.441l-25.051-25.051
		c-3.397-3.336-8.848-3.312-12.215,0.055c-3.367,3.367-3.392,8.818-0.055,12.215l25.051,25.051l-6.441,6.441l-18.814-18.814
		c-3.389-3.389-8.883-3.389-12.271,0c-3.389,3.389-3.388,8.883,0,12.271l18.814,18.814l-6.441,6.441l-6.339-6.339
		c-3.389-3.389-8.883-3.389-12.271,0c-3.389,3.389-3.389,8.883,0,12.271l6.339,6.339L204.172,298.627
		c-2.225,2.185-3.106,5.396-2.308,8.411c0.798,3.015,3.153,5.37,6.168,6.168c3.015,0.798,6.226-0.083,8.411-2.308l182.882-182.877
		l6.339,6.339c2.192,2.192,5.387,3.048,8.381,2.246c2.994-0.802,5.333-3.141,6.136-6.136s-0.054-6.189-2.246-8.381l-6.339-6.339
		l6.441-6.441l18.814,18.814c3.394,3.359,8.864,3.346,12.24-0.031c3.376-3.377,3.39-8.847,0.031-12.24l-18.814-18.814l6.441-6.441
		l25.051,25.051c3.389,3.389,8.883,3.389,12.271,0c3.389-3.389,3.389-8.883,0-12.271l-25.051-25.051l6.441-6.441l25.051,25.051
		c3.389,3.389,8.883,3.389,12.271,0c3.389-3.389,3.389-8.883,0-12.271l-25.051-25.051l6.441-6.441l18.814,18.814
		c3.389,3.389,8.883,3.389,12.271,0c3.389-3.389,3.389-8.883,0-12.271l-18.814-18.814l6.441-6.441L499.223,40.801z"/>
	<g>
		<path style="fill:#8697CB;" d="M205.863,234.158l75.05,75.05c3.389,3.389,3.389,8.884,0,12.273L99.526,502.867
			c-13.556,13.556-35.534,13.556-49.09,0l-38.232-38.232c-13.556-13.556-13.556-35.534,0-49.09L193.59,234.158
			C196.979,230.769,202.474,230.769,205.863,234.158z"/>
		<path style="fill:#8697CB;" d="M255.767,234.16l25.151,25.151c3.389,3.389,3.389,8.884,0,12.273l-33.183,33.183l-37.424-37.424
			l33.183-33.183C246.883,230.771,252.378,230.771,255.767,234.16z"/>
	</g>
	<g>
		<path style="fill:#B0D3F0;" d="M37.562,448.762c-3.509-0.001-6.673-2.115-8.016-5.357c-1.343-3.242-0.601-6.974,1.88-9.456
			l106.034-106.03c3.389-3.389,8.883-3.389,12.271,0c3.389,3.389,3.389,8.883,0,12.271L43.697,446.22
			C42.072,447.85,39.864,448.765,37.562,448.762z"/>
		<path style="fill:#B0D3F0;" d="M168.545,317.784c-3.509-0.001-6.673-2.115-8.016-5.357c-1.343-3.242-0.601-6.974,1.88-9.456
			l6.237-6.237c3.389-3.389,8.883-3.389,12.271,0c3.389,3.389,3.389,8.883,0,12.271l-6.237,6.237
			C173.055,316.872,170.847,317.787,168.545,317.784z"/>
	</g>
	<path style="fill:#556080;" d="M280.885,321.486l-18.77,18.77l-87.301-87.3l18.77-18.77c3.389-3.389,8.883-3.389,12.272,0
		l75.029,75.028c1.627,1.628,2.542,3.835,2.542,6.136C283.427,317.651,282.512,319.858,280.885,321.486z"/>
</g>
<g>
</g>
<g>
</g>
<g>
</g>
<g>
</g>
<g>
</g>
<g>
</g>
<g>
</g>
<g>
</g>
<g>
</g>
<g>
</g>
<g>
</g>
<g>
</g>
<g>
</g>
<g>
</g>
<g>
</g>
</svg>
